Coordinates
version=1
nRows=40
nColumns=38
inDegrees=no

Units are S.I. units (second, meters, Newtons, ...)
If the header above contains a line with 'inDegrees', this indicates whether rotational values are in degrees (yes) or radians (no).

endheader
time	pelvis_tilt	pelvis_list	pelvis_rotation	pelvis_tx	pelvis_ty	pelvis_tz	hip_flexion_r	hip_adduction_r	hip_rotation_r	knee_angle_r	ankle_angle_r	subtalar_angle_r	mtp_angle_r	hip_flexion_l	hip_adduction_l	hip_rotation_l	knee_angle_l	ankle_angle_l	subtalar_angle_l	mtp_angle_l	lumbar_extension	lumbar_bending	lumbar_rotation	arm_flex_r	arm_add_r	arm_rot_r	elbow_flex_r	pro_sup_r	wrist_flex_r	wrist_dev_r	arm_flex_l	arm_add_l	arm_rot_l	elbow_flex_l	pro_sup_l	wrist_flex_l	wrist_dev_l
64.76	1.35592	1.4931	0.281079	0.626803	-0.134976	0.879791	0.497566	0.00174308	-0.0995127	0.886661	-0.227242	0	0	0.516611	-0.252599	-0.328587	1.01553	-0.217185	0	0	-0.415325	0.16237	-0.241532	0.549727	-0.246142	0.923185	0.3743	0.892326	0	0	0.0530362	-0.466076	0.366895	0.697313	1.03531	0	0
64.77	1.37738	1.49465	0.259788	0.626409	-0.132354	0.882901	0.482035	0.00122777	-0.100707	0.86808	-0.231544	0	0	0.502074	-0.248925	-0.330947	0.999469	-0.220451	0	0	-0.404631	0.160861	-0.243821	0.544833	-0.246961	0.917205	0.375237	0.902017	0	0	0.0479734	-0.466075	0.363577	0.699955	1.03657	0	0
64.78	1.39438	1.49597	0.2428	0.626006	-0.129767	0.885987	0.467411	0.000843316	-0.101628	0.850297	-0.23596	0	0	0.487973	-0.245092	-0.332949	0.983056	-0.223692	0	0	-0.393805	0.159433	-0.245973	0.539801	-0.247388	0.908346	0.375754	0.911857	0	0	0.0429757	-0.465891	0.360188	0.702544	1.03773	0	0
64.79	1.39238	1.49686	0.244866	0.625591	-0.127193	0.888864	0.454917	0.000816158	-0.101996	0.833148	-0.234553	0	0	0.475742	-0.241339	-0.334758	0.966957	-0.224683	0	0	-0.380865	0.15825	-0.248013	0.536778	-0.250507	0.917837	0.377871	0.898062	0	0	0.0396569	-0.466345	0.363293	0.703144	1.03324	0	0
64.8	1.40832	1.49761	0.229183	0.62514	-0.124681	0.891829	0.441185	0.000927174	-0.10299	0.816006	-0.242315	0	0	0.462104	-0.238064	-0.3366	0.950375	-0.22934	0	0	-0.370877	0.157336	-0.250249	0.529254	-0.247661	0.884789	0.376283	0.935373	0	0	0.0335903	-0.465287	0.35511	0.70692	1.03987	0	0
64.81	1.45582	1.4985	0.182007	0.624668	-0.122302	0.894812	0.424968	0.000885947	-0.104687	0.798967	-0.251472	0	0	0.446182	-0.235301	-0.338804	0.934064	-0.233758	0	0	-0.362157	0.157653	-0.255276	0.545069	-0.26242	1.00928	0.38693	0.799731	0	0	0.0269526	-0.466187	0.352475	0.71012	1.03644	0	0
64.82	1.46885	1.49942	0.16917	0.624291	-0.119807	0.897537	0.410735	0.00076998	-0.105636	0.780494	-0.256453	0	0	0.432795	-0.231987	-0.341017	0.917738	-0.236947	0	0	-0.351398	0.156542	-0.257618	0.541883	-0.263673	1.00965	0.387808	0.802133	0	0	0.0222897	-0.466156	0.350791	0.712292	1.03578	0	0
64.83	1.48054	1.50055	0.157416	0.623959	-0.117344	0.900175	0.396715	0.00101759	-0.105617	0.761408	-0.261569	0	0	0.419389	-0.228524	-0.343443	0.90129	-0.240173	0	0	-0.340975	0.155045	-0.259675	0.538417	-0.264757	1.00881	0.388717	0.804211	0	0	0.0177608	-0.466226	0.349475	0.714469	1.03528	0	0
64.84	1.50116	1.50145	0.137398	0.623539	-0.115005	0.90278	0.382707	0.00102968	-0.106737	0.743371	-0.266765	0	0	0.405763	-0.224987	-0.344978	0.884708	-0.243377	0	0	-0.331671	0.154108	-0.261968	0.535485	-0.265958	1.00821	0.389749	0.807556	0	0	0.0138231	-0.466387	0.348754	0.716607	1.03489	0	0
64.85	1.52318	1.50241	0.115965	0.623166	-0.112689	0.905326	0.369127	0.000944109	-0.108007	0.726478	-0.271883	0	0	0.391988	-0.221641	-0.346977	0.867907	-0.246678	0	0	-0.322829	0.153003	-0.264175	0.532773	-0.266968	1.00731	0.39065	0.811455	0	0	0.0100684	-0.466528	0.348054	0.718531	1.03472	0	0
64.86	1.55098	1.50374	0.0881823	0.62285	-0.110405	0.907827	0.355155	0.000600748	-0.108356	0.70971	-0.276967	0	0	0.377503	-0.218199	-0.349795	0.850998	-0.249974	0	0	-0.314776	0.15136	-0.265912	0.530274	-0.267881	1.00632	0.391572	0.815732	0	0	0.00622602	-0.466581	0.346773	0.720547	1.0355	0	0
64.87	1.58614	1.50503	0.0529516	0.622577	-0.108186	0.91032	0.340904	0.000323142	-0.108855	0.693045	-0.282111	0	0	0.362584	-0.214739	-0.35255	0.833995	-0.253249	0	0	-0.307612	0.149699	-0.267406	0.527975	-0.268623	1.00598	0.392166	0.820899	0	0	0.00259098	-0.466639	0.345405	0.72262	1.03682	0	0
64.88	1.63146	1.50651	0.0079906	0.622326	-0.106006	0.912741	0.325293	-0.000236418	-0.109842	0.674511	-0.287152	0	0	0.347264	-0.210935	-0.355106	0.817325	-0.256128	0	0	-0.301185	0.147863	-0.269323	0.525972	-0.26893	1.00572	0.39229	0.826415	0	0	-0.00100939	-0.46699	0.344196	0.724689	1.0384	0	0
64.89	1.67987	1.50769	-0.0400103	0.622054	-0.103874	0.915061	0.309919	-0.000834204	-0.111212	0.656534	-0.292399	0	0	0.332085	-0.207096	-0.356848	0.800392	-0.259324	0	0	-0.294982	0.146201	-0.271236	0.524044	-0.269178	1.00539	0.392185	0.832132	0	0	-0.00463172	-0.467286	0.342916	0.726669	1.04005	0	0
64.9	1.72725	1.50878	-0.0870459	0.621805	-0.101777	0.917211	0.295148	-0.00137552	-0.112575	0.638919	-0.297822	0	0	0.317318	-0.203041	-0.357617	0.783416	-0.262589	0	0	-0.288602	0.144466	-0.273109	0.522049	-0.269268	1.00498	0.391716	0.838372	0	0	-0.00864211	-0.46764	0.341543	0.729108	1.04101	0	0
64.91	1.77888	1.50967	-0.138344	0.621549	-0.0997164	0.919288	0.280649	-0.00212223	-0.114288	0.622266	-0.302977	0	0	0.302403	-0.19874	-0.357531	0.765875	-0.265621	0	0	-0.282585	0.142807	-0.275015	0.520106	-0.26916	1.00398	0.390897	0.844838	0	0	-0.0127756	-0.467791	0.340032	0.73132	1.04136	0	0
64.92	1.83304	1.51035	-0.192315	0.621299	-0.0976876	0.921322	0.266557	-0.00305629	-0.116063	0.606879	-0.307537	0	0	0.287445	-0.194463	-0.35735	0.748584	-0.26731	0	0	-0.276785	0.141109	-0.276513	0.518046	-0.269144	1.00156	0.39016	0.850923	0	0	-0.01647	-0.467622	0.338889	0.732714	1.04144	0	0
64.93	2.005	1.5342	-0.352857	0.620555	-0.0977404	0.926436	0.254828	-0.0320653	-0.121368	0.588665	-0.314403	0	0	0.171602	-0.0524012	-0.051964	0.465227	-0.253355	0	0	-0.280584	0.114685	-0.280486	0.512163	-0.270224	0.989643	0.391056	0.84766	0	0	0.0024128	-0.469421	0.350077	0.720262	1.04878	0	0
64.94	2.08761	1.53486	-0.435632	0.620422	-0.0955014	0.928226	0.241273	-0.0331152	-0.123457	0.572979	-0.319523	0	0	0.153673	-0.0488301	-0.0467296	0.439903	-0.260846	0	0	-0.273963	0.111845	-0.281397	0.509502	-0.271216	0.991448	0.391775	0.850428	0	0	-0.00186181	-0.468765	0.348553	0.720509	1.04891	0	0
64.95	2.16848	1.53549	-0.516755	0.620305	-0.093288	0.929951	0.227916	-0.0340356	-0.125205	0.556747	-0.324325	0	0	0.135602	-0.0450577	-0.0411421	0.41364	-0.26955	0	0	-0.267275	0.108785	-0.282027	0.506586	-0.272598	0.993259	0.393141	0.853619	0	0	-0.00586736	-0.467692	0.3469	0.719932	1.05015	0	0
64.96	2.31636	1.53459	-0.664759	0.620207	-0.0911556	0.9319	0.210881	-0.0349353	-0.126829	0.537937	-0.335717	0	0	0.112367	-0.0404008	-0.0322661	0.381678	-0.287168	0	0	-0.264214	0.105299	-0.282933	0.503243	-0.272981	0.988258	0.394409	0.865271	0	0	-0.0105484	-0.46629	0.341324	0.720376	1.056	0	0
64.97	2.43231	1.53372	-0.781207	0.620135	-0.0890282	0.933698	0.195794	-0.0358465	-0.127754	0.521069	-0.340918	0	0	0.0908965	-0.0362873	-0.0256448	0.351698	-0.298664	0	0	-0.259571	0.101736	-0.282856	0.499991	-0.27457	0.988546	0.39624	0.867649	0	0	-0.0139854	-0.46489	0.339537	0.719263	1.05878	0	0
64.98	2.5505	1.53165	-0.900171	0.620078	-0.0869671	0.935532	0.180113	-0.036542	-0.128302	0.504796	-0.346086	0	0	0.0680719	-0.0323403	-0.018821	0.320595	-0.31094	0	0	-0.256063	0.0984223	-0.282253	0.496757	-0.276369	0.987993	0.398581	0.869193	0	0	-0.0171118	-0.463193	0.33762	0.71803	1.06195	0	0
64.99	2.64646	1.52906	-0.996668	0.62004	-0.0849525	0.937267	0.164367	-0.0364875	-0.128485	0.487784	-0.351289	0	0	0.0457841	-0.0290689	-0.0122955	0.289981	-0.323391	0	0	-0.252562	0.095381	-0.281539	0.493155	-0.278343	0.987361	0.401254	0.870839	0	0	-0.0202815	-0.461387	0.335521	0.717088	1.06552	0	0
65	2.71814	1.52597	-1.06866	0.619966	-0.0830247	0.938855	0.147721	-0.0359206	-0.128309	0.468789	-0.356628	0	0	0.0244055	-0.0267552	-0.0067764	0.260777	-0.335791	0	0	-0.249009	0.0930168	-0.281067	0.489674	-0.280245	0.986326	0.403921	0.872503	0	0	-0.0237972	-0.459444	0.332944	0.716642	1.06881	0	0
65.01	2.76561	1.52285	-1.11612	0.619897	-0.081152	0.940258	0.131035	-0.0346553	-0.128122	0.448632	-0.362006	0	0	0.00416256	-0.0252451	-0.00145124	0.232653	-0.348033	0	0	-0.245091	0.0912951	-0.280706	0.486012	-0.282265	0.984414	0.40691	0.873941	0	0	-0.0275428	-0.457485	0.330575	0.716583	1.07199	0	0
65.02	2.79165	1.51918	-1.14186	0.619862	-0.0793489	0.941557	0.114054	-0.0323181	-0.128228	0.428027	-0.367167	0	0	-0.0157874	-0.024859	0.00523593	0.205116	-0.359598	0	0	-0.241799	0.0906176	-0.280106	0.482339	-0.284681	0.982456	0.410505	0.875919	0	0	-0.0309517	-0.455423	0.328463	0.716607	1.0751	0	0
65.03	2.80806	1.51516	-1.15743	0.619818	-0.0776455	0.94271	0.0967	-0.0292998	-0.128513	0.406574	-0.372079	0	0	-0.0356859	-0.0250561	0.012997	0.177611	-0.369181	0	0	-0.239162	0.0903824	-0.279422	0.478584	-0.287434	0.980239	0.414618	0.878015	0	0	-0.0335557	-0.453289	0.326724	0.716587	1.07842	0	0
65.04	2.80427	1.51323	-1.15227	0.619734	-0.0759898	0.943461	0.082518	-0.0263276	-0.129255	0.386499	-0.374317	0	0	-0.0500159	-0.0259846	0.0159238	0.157104	-0.370086	0	0	-0.233981	0.0902843	-0.279108	0.474569	-0.289798	0.978533	0.417651	0.879786	0	0	-0.0360767	-0.450855	0.325433	0.715941	1.08089	0	0
65.05	2.50339	1.50587	-0.852524	0.619331	-0.0734364	0.941132	0.0742773	-0.00387143	-0.12933	0.36884	-0.374227	0	0	0.0903607	-0.13646	-0.348181	0.507053	-0.303477	0	0	-0.215433	0.111299	-0.28317	0.476895	-0.295915	1.00336	0.424203	0.868159	0	0	-0.053555	-0.446992	0.318413	0.72519	1.07455	0	0
65.06	2.51753	1.50337	-0.863694	0.619076	-0.0721161	0.941678	0.0602775	-0.00185926	-0.131682	0.350775	-0.376075	0	0	0.0793495	-0.136364	-0.348937	0.494793	-0.302485	0	0	-0.212382	0.111632	-0.283934	0.474008	-0.298835	1.00374	0.427801	0.866332	0	0	-0.0544377	-0.444777	0.318302	0.724054	1.07796	0	0
65.07	2.54238	1.49955	-0.88518	0.618845	-0.0709243	0.942194	0.0452423	0.000211479	-0.134583	0.333698	-0.37927	0	0	0.0672289	-0.136754	-0.349305	0.48299	-0.302775	0	0	-0.211493	0.112281	-0.284635	0.471429	-0.301525	1.00328	0.431166	0.86481	0	0	-0.0543624	-0.4432	0.319572	0.723054	1.08128	0	0
65.08	2.56829	1.49549	-0.907457	0.61862	-0.0698402	0.942616	0.0307173	0.00258469	-0.137191	0.317908	-0.382782	0	0	0.0555713	-0.137391	-0.349274	0.472188	-0.303012	0	0	-0.211543	0.112912	-0.285045	0.468988	-0.303957	1.00279	0.433829	0.86425	0	0	-0.0535034	-0.442084	0.321995	0.722136	1.08481	0	0
65.09	2.59738	1.49106	-0.932645	0.618358	-0.0688767	0.942994	0.0162152	0.00474614	-0.139755	0.302955	-0.386266	0	0	0.0444072	-0.138142	-0.34894	0.46288	-0.303	0	0	-0.212583	0.113492	-0.285418	0.466838	-0.306046	1.00227	0.435731	0.864569	0	0	-0.0519906	-0.441159	0.325081	0.720909	1.08846	0	0
65.1	2.6301	1.48613	-0.961309	0.618064	-0.0680467	0.943371	0.00159267	0.00643555	-0.142505	0.289129	-0.389865	0	0	0.033831	-0.138971	-0.348701	0.455632	-0.303087	0	0	-0.214715	0.114031	-0.285643	0.465046	-0.307789	1.00168	0.436775	0.865697	0	0	-0.0499508	-0.440343	0.328661	0.719672	1.09202	0	0
65.11	2.6607	1.48139	-0.986898	0.617676	-0.0672146	0.943706	-0.0124615	0.00758843	-0.146827	0.27641	-0.393233	0	0	0.0248313	-0.139613	-0.347045	0.450541	-0.303447	0	0	-0.216695	0.114508	-0.286573	0.463008	-0.309316	1.00103	0.437247	0.86788	0	0	-0.0478026	-0.439334	0.332306	0.718139	1.09581	0	0
65.12	2.6814	1.47866	-1.00055	0.617135	-0.0661887	0.943817	-0.0238978	0.00816018	-0.153981	0.264663	-0.396131	0	0	0.0197498	-0.139717	-0.342563	0.447957	-0.303836	0	0	-0.215801	0.114535	-0.289411	0.459729	-0.310644	0.999803	0.437256	0.87101	0	0	-0.0463923	-0.438123	0.336021	0.716206	1.1001	0	0
65.13	2.70306	1.47526	-1.0175	0.61679	-0.0654698	0.94393	-0.0338866	0.0091043	-0.156463	0.255926	-0.398432	0	0	0.0149284	-0.140132	-0.339575	0.447233	-0.30339	0	0	-0.216428	0.11461	-0.290371	0.457859	-0.311443	0.999338	0.436803	0.875281	0	0	-0.0448206	-0.437157	0.339582	0.714819	1.10434	0	0
65.14	2.72241	1.47116	-1.03424	0.616609	-0.0650208	0.944073	-0.042551	0.0104694	-0.154895	0.250161	-0.399471	0	0	0.010253	-0.140902	-0.337382	0.447701	-0.302395	0	0	-0.2184	0.115016	-0.289544	0.457293	-0.311954	1.00032	0.435948	0.879924	0	0	-0.0431277	-0.436326	0.342881	0.714039	1.10819	0	0
65.15	2.73865	1.46684	-1.04824	0.616473	-0.0646411	0.944258	-0.0505446	0.0123457	-0.151951	0.245589	-0.399983	0	0	0.00574506	-0.141313	-0.332964	0.447855	-0.301291	0	0	-0.220613	0.115628	-0.288524	0.456963	-0.312332	1.00189	0.434938	0.885187	0	0	-0.0416244	-0.435625	0.346307	0.713443	1.11219	0	0
